<svg focusable="false" aria-hidden="true" xmlns="http://www.w3.org/2000/svg" viewbox="0 0 32 32"><path fill="#fff" d="M7.591 21.177q0-.54.377-.917l2.804-2.804a1.24 1.24 0 0 1 .913-.378q.565 0 .97.43-.038.041-.255.25-.215.21-.29.29a3 3 0 0 0-.2.256 1.1 1.1 0 0 0-.177.344 1.4 1.4 0 0 0-.046.37q0 .54.377.918a1.25 1.25 0 0 0 .918.377q.19.001.373-.047.189-.056.345-.175.135-.09.256-.2.15-.14.29-.29c.14-.142.223-.23.25-.254q.445.42.445.984 0 .539-.377.916l-2.778 2.79a1.24 1.24 0 0 1-.917.364q-.54-.001-.917-.35l-1.982-1.97a1.22 1.22 0 0 1-.378-.9zm9.477-9.504q0-.54.377-.917l2.777-2.79a1.24 1.24 0 0 1 .913-.378q.525-.001.917.364l1.984 1.968q.38.378.38.903 0 .54-.38.917l-2.802 2.804a1.24 1.24 0 0 1-.916.364q-.565 0-.97-.418.038-.04.255-.25a8 8 0 0 0 .29-.29q.108-.12.2-.255.121-.156.176-.344.048-.181.047-.37 0-.538-.377-.914a1.25 1.25 0 0 0-.917-.377q-.205 0-.37.046-.172.046-.346.175a4 4 0 0 0-.256.2q-.08.076-.29.29l-.25.258q-.441-.417-.442-.983zM5.003 21.177q0 1.617 1.146 2.736l1.982 1.968c.745.75 1.658 1.12 2.736 1.12q1.63 0 2.75-1.143l2.777-2.79c.75-.747 1.12-1.66 1.12-2.737q.002-1.66-1.183-2.818l1.186-1.185q1.16 1.185 2.805 1.186 1.617 0 2.75-1.13l2.803-2.81q1.127-1.132 1.128-2.748 0-1.62-1.146-2.738L23.875 6.12Q22.758 4.999 21.139 5q-1.63 0-2.75 1.146l-2.777 2.79c-.75.747-1.12 1.66-1.12 2.737q-.002 1.658 1.183 2.817l-1.186 1.186q-1.16-1.186-2.805-1.186-1.617 0-2.75 1.132L6.13 18.426Q5 19.559 5 21.176z"/></svg>