<svg focusable="false" aria-hidden="true" xmlns="http://www.w3.org/2000/svg" viewbox="0 0 32 32"><path fill="#fff" d="M6.96 8.33h7.328q1.871 0 2.875 1.098 1 1.1 1.002 2.72-.001 1.365-.715 2.336-.477.649-1.396 1.023c.928.266 1.614.72 2.05 1.367q.66.968.66 2.432 0 1.194-.468 2.146-.47.954-1.28 1.508-.504.344-1.52.502-1.351.21-1.79.21H6.958V8.328zm3.877 6.017h1.74c.623 0 1.058-.13 1.302-.382q.361-.382.362-1.104 0-.662-.366-1.043-.367-.376-1.276-.377h-1.766v2.91zm0 6.027h2.038q1.035 0 1.458-.434.424-.436.425-1.168-.002-.68-.42-1.092-.42-.415-1.47-.414h-2.03v3.108zM21.213 8.52h3.584v9.58h-3.584zm1.792 15.151a2.036 2.036 0 1 0 0-4.072 2.036 2.036 0 0 0 0 4.072"/></svg>