<svg focusable="false" aria-hidden="true" xmlns="http://www.w3.org/2000/svg" viewbox="0 0 32 32"><g fill="#FFF"><path d="M16.76 5.53c-1.586 0-3.094.33-4.462.922l-2.47-2.465h-.005A11.27 11.27 0 0 0 4 9.843l2.472 2.47a11.28 11.28 0 0 1 5.823-5.86h.004l9.14 9.128h-.006a11.3 11.3 0 0 0-5.823 5.86l-9.14-9.13c-.597 1.372-.952 2.865-.952 4.457 0 6.21 5.03 11.24 11.24 11.24S28 22.98 28 16.77c0-6.206-5.033-11.24-11.24-11.24m1.95 16.573a6.56 6.56 0 0 1 3.38-3.403l.887 4.285-4.268-.882z"/><path d="m22.092 18.702-.653-3.118h-.007a11.3 11.3 0 0 0-5.822 5.858l3.097.66a6.58 6.58 0 0 1 3.38-3.4"/></g></svg>