<svg focusable="false" aria-hidden="true" xmlns="http://www.w3.org/2000/svg" viewbox="0 0 32 32"><path fill="#FFF" d="M9.636 10.427a1.22 1.22 0 1 1-2.44 0 1.22 1.22 0 1 1 2.44 0m5.938.004a1.22 1.22 0 0 1-2.438 0 1.22 1.22 0 1 1 2.438 0m7.018 0a1.221 1.221 0 1 1-2.443 0 1.221 1.221 0 0 1 2.443 0m7.013 0a1.221 1.221 0 1 1-2.442 0 1.221 1.221 0 0 1 2.442 0m-26 3.341c0-.471.374-.859.859-.859h.18c.374 0 .624.194.789.457l2.935 4.597 2.95-4.611c.18-.291.43-.443.774-.443h.18c.485 0 .859.387.859.859v8.113a.843.843 0 0 1-.859.845.857.857 0 0 1-.845-.845V16.07l-2.366 3.559c-.18.276-.402.443-.72.443-.304 0-.526-.167-.706-.443l-2.354-3.53V21.9c0 .471-.374.83-.845.83a.815.815 0 0 1-.83-.83zm10.791.283a.9.9 0 0 1-.069-.333c0-.471.402-.83.872-.83.415 0 .735.263.845.624l2.23 6.66 2.187-6.632c.139-.402.428-.678.859-.678h.124c.428 0 .735.278.859.678l2.187 6.632 2.23-6.675c.126-.346.415-.609.83-.609.457 0 .845.361.845.817a1 1 0 0 1-.083.346l-2.867 8.032c-.152.43-.471.706-.887.706h-.165c-.415 0-.721-.263-.872-.706l-2.161-6.328-2.16 6.328c-.152.443-.47.706-.887.706h-.165c-.415 0-.72-.263-.887-.706z"/></svg>