<svg focusable="false" aria-hidden="true" xmlns="http://www.w3.org/2000/svg" viewbox="0 0 32 32"><path fill="#fff" d="M26.882 5c-4.79 0-8.679 3.813-8.679 8.518v2.65c0-1.198.985-2.166 2.2-2.166 1.214 0 2.199.968 2.199 2.165v1.104c0 1.197.984 2.165 2.199 2.165S27 18.468 27 17.271V5.009q-.052-.01-.118-.008Z" opacity=".8"/><path fill="#fff" d="M5 5v11.863c2.352 0 4.28-1.809 4.407-4.093v-2.03c0-.06 0-.11.008-.16.085-1.113 1.036-1.997 2.19-1.997 1.215 0 2.2.968 2.2 2.166v8.457c0 1.197.985 2.157 2.2 2.157 1.214 0 2.198-.968 2.198-2.157v-5.689c0-4.704 3.88-8.517 8.679-8.517z"/><path fill="#fff" d="M5 16.871v7.736c0 1.197.985 2.165 2.2 2.165 1.214 0 2.198-.968 2.198-2.165V12.779C9.271 15.064 7.352 16.871 5 16.871" opacity=".8"/></svg>