<svg focusable="false" aria-hidden="true" xmlns="http://www.w3.org/2000/svg" viewbox="0 0 32 32"><path fill="#fff" d="M24 17.716c-2.21 0-4 1.79-4 4v1.712h8v-1.713c0-2.21-1.79-3.999-4-3.999m0-1.144a4 4 0 1 0 0-8 4 4 0 0 0 0 8m-8.852 1.738a3.713 3.713 0 0 0-3.72 3.71v1.408h7.437c.002-.615.002-1.148.002-1.408 0-2.05-1.664-3.71-3.719-3.71m-.001-1.153a3.715 3.715 0 0 0 3.719-3.71 3.715 3.715 0 0 0-3.719-3.71 3.715 3.715 0 0 0-3.719 3.71 3.715 3.715 0 0 0 3.719 3.71m-7.999 1.718A3.14 3.14 0 0 0 4 22.008v1.42h6.295c.002-.636.002-1.178.002-1.42a3.14 3.14 0 0 0-3.149-3.133m0-1.162a3.14 3.14 0 0 0 3.148-3.133 3.14 3.14 0 0 0-3.148-3.133A3.14 3.14 0 0 0 4 14.58a3.14 3.14 0 0 0 3.148 3.133"/></svg>