<svg focusable="false" aria-hidden="true" xmlns="http://www.w3.org/2000/svg" viewbox="0 0 32 32"><path fill="#fff" d="M19.271 8.574v5.144l1.796 1.13a.44.44 0 0 0 .198 0L29 9.635c0-.617-.573-1.06-.9-1.06z"/><path fill="#fff" d="m19.271 15.636 1.642 1.126c.23.17.507 0 .507 0-.277.17 7.58-5.048 7.58-5.048v9.45c0 1.03-.658 1.46-1.4 1.46h-8.329zm-8.488-2.371q-.839 0-1.333.787c-.334.524-.496 1.22-.496 2.086 0 .875.162 1.568.496 2.076.322.51.757.767 1.29.767.552 0 .985-.249 1.31-.743q.48-.744.481-2.064c0-.92-.159-1.63-.469-2.14q-.467-.77-1.281-.77h.002Z"/><path fill="#fff" d="M3 5.965v20.118l15.303 3.206V3zM13.241 19.42q-.971 1.276-2.53 1.278-1.52 0-2.479-1.238-.954-1.235-.954-3.225c0-1.399.32-2.532.97-3.395.648-.866 1.51-1.298 2.576-1.298q1.516-.002 2.45 1.238.935 1.242.935 3.269c.004 1.4-.322 2.52-.967 3.37Z"/></svg>