<svg focusable="false" aria-hidden="true" xmlns="http://www.w3.org/2000/svg" viewbox="0 0 32 32"><path fill="#fff" fill-rule="evenodd" d="M21.805 8.837a7.82 7.82 0 0 1 0 11.282 9 9 0 0 1-.327.302L16 25.447l-5.478-5.026a9 9 0 0 1-.328-.302 7.82 7.82 0 0 1 0-11.282c3.206-3.116 8.405-3.116 11.611 0" clip-rule="evenodd" opacity=".9"/><g opacity=".8"><path fill="#fff" d="M10 13.447a6 6 0 0 1 6 6v6h-6a6 6 0 0 1 0-12"/><mask id="a" width="12" height="13" x="4" y="13" maskunits="userSpaceOnUse" style="mask-type:luminance"><path fill="#0DB4E2" d="M10 13.447a6 6 0 0 1 6 6v6h-6a6 6 0 0 1 0-12"/></mask><g mask="url(#a)"><path fill="#fff" fill-rule="evenodd" d="M21.805 8.836a7.82 7.82 0 0 1 0 11.283 9 9 0 0 1-.327.301L16 25.447l-5.478-5.027a9 9 0 0 1-.328-.302 7.82 7.82 0 0 1 0-11.282c3.206-3.115 8.405-3.115 11.611 0" clip-rule="evenodd"/></g></g><g opacity=".8"><path fill="#fff" d="M16 25.447v-6l.003-.17A6 6 0 1 1 22 25.447z"/><mask id="b" width="12" height="13" x="16" y="13" maskunits="userSpaceOnUse" style="mask-type:luminance"><path fill="#0DB4E2" d="M16 25.447v-6l.003-.17A6 6 0 1 1 22 25.447z"/></mask><g mask="url(#b)"><path fill="#fff" fill-rule="evenodd" d="M21.805 8.836a7.82 7.82 0 0 1 0 11.283 9 9 0 0 1-.327.301L16 25.447l-5.478-5.027a9 9 0 0 1-.328-.302 7.82 7.82 0 0 1 0-11.282c3.206-3.116 8.405-3.116 11.611 0" clip-rule="evenodd"/></g></g></svg>