<svg focusable="false" aria-hidden="true" xmlns="http://www.w3.org/2000/svg" viewbox="0 0 32 32"><path fill="#FFF" d="M23.506 8.08q.967-.001 1.967.225.82.18 1.173.495.354.316.354.868 0 .348-.13.547-.128.195-.56.48-.5.337-.573.794-.075.45-.134 3.54-.026 2.985-.048 3.58-.022.6-.107 1.16-.25 1.65-1.01 2.583-.621.765-1.596 1.205t-2.054.44q-.959-.001-1.92-.326a5.4 5.4 0 0 1-1.67-.902q-.585-.472-.93-1.278a4.3 4.3 0 0 1-.347-1.72c0-.75.186-1.37.548-1.863q.543-.736 1.363-.738.803 0 1.363.62.561.63.56 1.555c0 .155-.033.42-.102.787q-.016.112-.017.247 0 .361.2.587.197.226.524.227.578 0 .933-.677.35-.675.35-1.78l-.01-1.024-.016-2.76q-.078-2.514-.116-2.96-.039-.444-.195-.725-.128-.225-.23-.29-.098-.07-.538-.216-.207-.058-.353-.315a1.1 1.1 0 0 1-.147-.555q0-.607.366-.975.37-.364 1.198-.59c.62-.17 1.254-.25 1.91-.25zM10.202 8q.89-.001 2.33.574a.8.8 0 0 0 .275.068q.086 0 .518-.203c.093-.05.19-.07.294-.07.38 0 .79.4 1.22 1.193.43.797.64 1.555.64 2.275q0 .63-.29 1.065c-.19.288-.426.434-.7.434q-.346 0-.56-.18c-.146-.12-.46-.48-.95-1.07q-1.036-1.264-2.037-1.264-.483 0-.772.305c-.19.204-.29.47-.29.8q0 .982 1.32 1.477 1.789.689 2.288 1.003 2.2 1.4 2.2 4.114 0 2.4-1.5 3.922Q12.65 23.999 10.175 24a8.6 8.6 0 0 1-2.33-.344q-1.224-.344-1.77-.805-.412-.359-.745-1.57a9 9 0 0 1-.33-2.36q.002-.553.174-.834.214-.36.543-.36t.63.438q.18.248.855 1.59.322.629 1.016 1.048.693.419 1.437.418.638 0 1.035-.31a.96.96 0 0 0 .396-.794q0-.45-.31-.777-.312-.33-1.01-.61-1.235-.508-1.88-.93a5.8 5.8 0 0 1-1.21-1.064q-1.362-1.578-1.362-3.583.001-.99.355-1.932c.354-.942.57-1.17 1-1.627C7.63 8.53 8.81 8 10.2 8z"/></svg>