<svg focusable="false" aria-hidden="true" xmlns="http://www.w3.org/2000/svg" viewbox="0 0 32 32"><path fill="#FFF" d="m11.328 14.309-1.793-.736Q7.58 12.769 7.58 11.45q0-.956.746-1.587.746-.641 1.878-.642.92 0 1.504.373.56.327 1.178 1.399l2.204-1.306q-1.75-3.036-4.863-3.037-2.309 0-3.866 1.376-1.559 1.363-1.559 3.391 0 3.008 3.698 4.569l1.738.722q.676.292 1.167.612.49.321.799.687t.455.805q.146.437.146.961 0 1.307-.84 2.156-.84.851-2.111.851-1.61 0-2.449-1.166-.467-.607-.653-2.193L4 20.028q.373 2.519 1.878 3.92 1.527 1.404 3.872 1.403 2.472 0 4.139-1.634 1.653-1.622 1.653-4.109 0-1.855-1.012-3.134-1.014-1.278-3.202-2.165M28 7.023H17.037v2.571h4.14v15.425h2.695V9.594H28z"/></svg>