<svg focusable="false" aria-hidden="true" xmlns="http://www.w3.org/2000/svg" viewbox="0 0 32 32"><path fill="#fff" d="M25.467 10.824A10.74 10.74 0 0 1 26.788 16c0 3.98-2.157 7.455-5.364 9.325l3.295-9.527c.616-1.54.82-2.77.82-3.865a8 8 0 0 0-.072-1.11Zm-7.98.117a22 22 0 0 0 1.234-.102c.582-.07.513-.923-.068-.89 0 0-1.748.138-2.876.138-1.06 0-2.841-.137-2.841-.137-.582-.034-.65.854-.069.889 0 0 .55.068 1.132.102l1.68 4.606-2.36 7.08-3.93-11.686c.65-.034 1.235-.102 1.235-.102.581-.07.512-.923-.069-.89 0 0-1.747.138-2.875.138-.203 0-.441-.005-.695-.013A10.78 10.78 0 0 1 16 5.21a10.75 10.75 0 0 1 7.285 2.832c-.046-.002-.092-.008-.14-.008-1.06 0-1.811.923-1.811 1.915 0 .889.513 1.641 1.06 2.53.41.719.889 1.642.889 2.976 0 .923-.355 1.994-.82 3.487l-1.077 3.596-3.9-11.598ZM16 26.79c-1.032 0-2.058-.148-3.048-.44l3.237-9.406 3.316 9.086a1 1 0 0 0 .078.148A10.8 10.8 0 0 1 16 26.79M5.21 16a10.7 10.7 0 0 1 .934-4.39l5.147 14.1A10.79 10.79 0 0 1 5.212 16ZM16 4C9.383 4 4 9.383 4 16c0 6.616 5.383 12 12 12 6.616 0 12-5.384 12-12 0-6.617-5.384-12-12-12"/></svg>